<svg xmlns="http://www.w3.org/2000/svg" viewBox="0 0 174.68 174.68"><defs><style>.cls-1{fill:#fda75d;}.cls-2{fill:#ffb379;}</style></defs><title>Asset 1</title><g id="Layer_2" data-name="Layer 2"><g id="Objects"><path class="cls-1" d="M41.94,87.34a42.89,42.89,0,1,1,42.89,42.88A42.89,42.89,0,0,1,41.94,87.34Z"/><path class="cls-2" d="M89.85,44.75a42.88,42.88,0,0,1,0,85.17,42.88,42.88,0,0,1,0-85.17Z"/><path class="cls-2" d="M113.51,68.46l0-.06a34.64,34.64,0,0,1,2.2,30,36,36,0,0,0,2.36-12.64A35.38,35.38,0,0,0,113.51,68.46Z"/><path class="cls-2" d="M111.46,106.27a35.63,35.63,0,0,0,4-7,34.35,34.35,0,0,1-3.94,7Z"/><path class="cls-1" d="M83.59,4.25A4.25,4.25,0,0,1,87.84,0h0a4.24,4.24,0,0,1,4.24,4.25V28.41a4.24,4.24,0,0,1-4.24,4.24h0a4.24,4.24,0,0,1-4.25-4.24Z"/><path class="cls-1" d="M82.59,4.25A4.25,4.25,0,0,1,86.84,0h0a4.24,4.24,0,0,1,4.24,4.25V28.41a4.24,4.24,0,0,1-4.24,4.24h0a4.24,4.24,0,0,1-4.25-4.24Z"/><path class="cls-1" d="M83.59,146.27A4.25,4.25,0,0,1,87.84,142h0a4.25,4.25,0,0,1,4.24,4.25v24.16a4.24,4.24,0,0,1-4.24,4.25h0a4.25,4.25,0,0,1-4.25-4.25Z"/><path class="cls-1" d="M82.59,146.27A4.25,4.25,0,0,1,86.84,142h0a4.25,4.25,0,0,1,4.24,4.25v24.16a4.24,4.24,0,0,1-4.24,4.25h0a4.25,4.25,0,0,1-4.25-4.25Z"/><path class="cls-1" d="M4.25,91.08A4.24,4.24,0,0,1,0,86.84H0a4.25,4.25,0,0,1,4.25-4.25H28.41a4.24,4.24,0,0,1,4.24,4.25h0a4.24,4.24,0,0,1-4.24,4.24Z"/><path class="cls-1" d="M4.25,92.09A4.25,4.25,0,0,1,0,87.84H0a4.25,4.25,0,0,1,4.25-4.25H28.41a4.24,4.24,0,0,1,4.24,4.25h0a4.25,4.25,0,0,1-4.24,4.25Z"/><path class="cls-1" d="M146.27,91.08A4.24,4.24,0,0,1,142,86.84h0a4.25,4.25,0,0,1,4.25-4.25h24.16a4.25,4.25,0,0,1,4.25,4.25h0a4.24,4.24,0,0,1-4.25,4.24Z"/><path class="cls-1" d="M146.27,92.09A4.25,4.25,0,0,1,142,87.84h0a4.25,4.25,0,0,1,4.25-4.25h24.16a4.25,4.25,0,0,1,4.25,4.25h0a4.25,4.25,0,0,1-4.25,4.25Z"/><path class="cls-1" d="M31.23,148.74a4.24,4.24,0,0,1-6,0h0a4.24,4.24,0,0,1,0-6l17.08-17.09a4.27,4.27,0,0,1,6,0h0a4.27,4.27,0,0,1,0,6Z"/><path class="cls-1" d="M31.94,149.45a4.25,4.25,0,0,1-6,0h0a4.26,4.26,0,0,1,0-6L43,126.36a4.24,4.24,0,0,1,6,0h0a4.25,4.25,0,0,1,0,6Z"/><path class="cls-1" d="M131.66,48.31a4.25,4.25,0,0,1-6,0h0a4.26,4.26,0,0,1,0-6l17.09-17.08a4.24,4.24,0,0,1,6,0h0a4.24,4.24,0,0,1,0,6Z"/><path class="cls-1" d="M132.37,49a4.25,4.25,0,0,1-6,0h0a4.24,4.24,0,0,1,0-6l17.09-17.08a4.24,4.24,0,0,1,6,0h0a4.24,4.24,0,0,1,0,6Z"/><path class="cls-1" d="M148.74,143.45a4.24,4.24,0,0,1,0,6h0a4.24,4.24,0,0,1-6,0l-17.09-17.08a4.25,4.25,0,0,1,0-6h0a4.25,4.25,0,0,1,6,0Z"/><path class="cls-1" d="M149.45,142.74a4.24,4.24,0,0,1,0,6h0a4.24,4.24,0,0,1-6,0l-17.09-17.08a4.25,4.25,0,0,1,0-6h0a4.27,4.27,0,0,1,6,0Z"/><path class="cls-1" d="M48.31,43a4.24,4.24,0,0,1,0,6h0a4.24,4.24,0,0,1-6,0L25.23,31.94a4.24,4.24,0,0,1,0-6h0a4.24,4.24,0,0,1,6,0Z"/><path class="cls-1" d="M49,42.31a4.24,4.24,0,0,1,0,6h0a4.24,4.24,0,0,1-6,0L25.93,31.23a4.26,4.26,0,0,1,0-6h0a4.25,4.25,0,0,1,6,0Z"/></g></g></svg>