<svg id="Layer_1" data-name="Layer 1" xmlns="http://www.w3.org/2000/svg" viewBox="0 0 150.59 170.8"><defs><style>.cls-1{fill:#fda75d;}.cls-2{fill:#ffb379;}</style></defs><title>01n</title><g id="Layer_2" data-name="Layer 2"><g id="Objects"><path class="cls-1" d="M91.46,89.94A64.31,64.31,0,0,0,36.61,17.39h0a67,67,0,0,0-9.6-.61,85.39,85.39,0,1,1-17.47,126,62.8,62.8,0,0,0,9.41,2A64.29,64.29,0,0,0,91.46,90Z" transform="translate(-9.5 -2.2)"/><path class="cls-2" d="M159.25,99.35A85.38,85.38,0,0,1,72.93,173a85,85,0,0,1-43.7-27.46,65.71,65.71,0,0,0,9.39,2A64.31,64.31,0,0,0,56.37,20.15h0a68.71,68.71,0,0,0-9.61-.61A85,85,0,0,1,96.23,5,85.39,85.39,0,0,1,159.25,99.35Z" transform="translate(-9.5 -2.2)"/><path class="cls-2" d="M139.89,62l.14-.09a70.78,70.78,0,0,1,5,26.94,72.5,72.5,0,0,1-.65,8.47,70.76,70.76,0,0,1-8.23,24.29,71.78,71.78,0,0,0,8.12-24.29A70.31,70.31,0,0,0,139.89,62Z" transform="translate(-9.5 -2.2)"/><path class="cls-2" d="M125.49,136a70.13,70.13,0,0,0,9.73-12.81,67.53,67.53,0,0,1-9.7,12.85Z" transform="translate(-9.5 -2.2)"/></g></g></svg>