<svg xmlns="http://www.w3.org/2000/svg" viewBox="0 0 228.86 190.63"><defs><style>.cls-1{fill:#5199af;}.cls-2{fill:#65a5bf;}.cls-3{fill:#fda75d;}.cls-4{fill:#ffb379;}.cls-5{fill:#62a6c4;}.cls-6{fill:#6fadcd;}</style></defs><title>Asset 2</title><g id="Layer_2" data-name="Layer 2"><g id="Objects"><path class="cls-1" d="M13,123.41a32.08,32.08,0,0,1,60-21.85,32.09,32.09,0,1,1,3.27,64H22.06A22.06,22.06,0,0,1,13,123.41Z"/><path class="cls-2" d="M15,143.51a22,22,0,0,1,13-20.1A32.06,32.06,0,0,1,51.64,84.49a32.12,32.12,0,0,1,21.29,17.07,32.09,32.09,0,1,1,3.27,64H37.1A22.06,22.06,0,0,1,15,143.51Z"/><circle class="cls-3" cx="139.01" cy="87.34" r="42.89"/><path class="cls-4" d="M144,44.75a42.88,42.88,0,0,1,0,85.17,42.88,42.88,0,0,1,0-85.17Z"/><path class="cls-4" d="M167.69,68.46l.05-.06a34.58,34.58,0,0,1,2.19,30,35.79,35.79,0,0,0,2.37-12.64A35.38,35.38,0,0,0,167.69,68.46Z"/><path class="cls-4" d="M165.64,106.26a35.78,35.78,0,0,0,4-7,34.35,34.35,0,0,1-3.94,7Z"/><path class="cls-3" d="M137.77,4.25A4.25,4.25,0,0,1,142,0h0a4.24,4.24,0,0,1,4.24,4.25V28.41A4.24,4.24,0,0,1,142,32.65h0a4.24,4.24,0,0,1-4.25-4.24Z"/><path class="cls-3" d="M136.77,4.25A4.24,4.24,0,0,1,141,0h0a4.25,4.25,0,0,1,4.25,4.25V28.41A4.24,4.24,0,0,1,141,32.65h0a4.24,4.24,0,0,1-4.24-4.24Z"/><path class="cls-3" d="M137.77,146.27A4.25,4.25,0,0,1,142,142h0a4.25,4.25,0,0,1,4.24,4.25v24.16a4.24,4.24,0,0,1-4.24,4.25h0a4.25,4.25,0,0,1-4.25-4.25Z"/><path class="cls-3" d="M136.77,146.27A4.25,4.25,0,0,1,141,142h0a4.25,4.25,0,0,1,4.25,4.25v24.16a4.25,4.25,0,0,1-4.25,4.25h0a4.24,4.24,0,0,1-4.24-4.25Z"/><path class="cls-3" d="M58.42,91.08a4.24,4.24,0,0,1-4.24-4.24h0a4.24,4.24,0,0,1,4.24-4.25H82.58a4.25,4.25,0,0,1,4.25,4.25h0a4.24,4.24,0,0,1-4.25,4.24Z"/><path class="cls-3" d="M58.42,92.09a4.25,4.25,0,0,1-4.24-4.25h0a4.24,4.24,0,0,1,4.24-4.25H82.58a4.25,4.25,0,0,1,4.25,4.25h0a4.25,4.25,0,0,1-4.25,4.25Z"/><path class="cls-3" d="M200.45,91.08a4.24,4.24,0,0,1-4.25-4.24h0a4.25,4.25,0,0,1,4.25-4.25h24.16a4.25,4.25,0,0,1,4.25,4.25h0a4.24,4.24,0,0,1-4.25,4.24Z"/><path class="cls-3" d="M200.45,92.09a4.25,4.25,0,0,1-4.25-4.25h0a4.25,4.25,0,0,1,4.25-4.25h24.16a4.25,4.25,0,0,1,4.25,4.25h0a4.25,4.25,0,0,1-4.25,4.25Z"/><path class="cls-3" d="M85.41,148.74a4.24,4.24,0,0,1-6,0h0a4.24,4.24,0,0,1,0-6l17.08-17.09a4.26,4.26,0,0,1,6,0h0a4.25,4.25,0,0,1,0,6Z"/><path class="cls-3" d="M86.12,149.45a4.25,4.25,0,0,1-6,0h0a4.26,4.26,0,0,1,0-6L97.2,126.36a4.24,4.24,0,0,1,6,0h0a4.25,4.25,0,0,1,0,6Z"/><path class="cls-3" d="M185.84,48.31a4.25,4.25,0,0,1-6,0h0a4.24,4.24,0,0,1,0-6l17.09-17.08a4.24,4.24,0,0,1,6,0h0a4.24,4.24,0,0,1,0,6Z"/><path class="cls-3" d="M186.54,49a4.24,4.24,0,0,1-6,0h0a4.24,4.24,0,0,1,0-6l17.08-17.08a4.25,4.25,0,0,1,6,0h0a4.24,4.24,0,0,1,0,6Z"/><path class="cls-3" d="M202.92,143.45a4.24,4.24,0,0,1,0,6h0a4.24,4.24,0,0,1-6,0l-17.09-17.08a4.25,4.25,0,0,1,0-6h0a4.25,4.25,0,0,1,6,0Z"/><path class="cls-3" d="M203.63,142.74a4.24,4.24,0,0,1,0,6h0a4.25,4.25,0,0,1-6,0l-17.08-17.08a4.25,4.25,0,0,1,0-6h0a4.26,4.26,0,0,1,6,0Z"/><path class="cls-3" d="M102.49,43a4.24,4.24,0,0,1,0,6h0a4.24,4.24,0,0,1-6,0L79.4,31.94a4.25,4.25,0,0,1,0-6h0a4.24,4.24,0,0,1,6,0Z"/><path class="cls-3" d="M103.2,42.31a4.24,4.24,0,0,1,0,6h0a4.24,4.24,0,0,1-6,0L80.11,31.23a4.26,4.26,0,0,1,0-6h0a4.25,4.25,0,0,1,6,0Z"/><path class="cls-5" d="M73.13,148.47a32.09,32.09,0,0,1,60-21.84,32.08,32.08,0,1,1,3.27,64H82.22a22.06,22.06,0,0,1-9.09-42.16Z"/><path class="cls-6" d="M75.2,168.58a22.07,22.07,0,0,1,13-20.11,32.09,32.09,0,0,1,23.64-38.91,32.13,32.13,0,0,1,21.28,17.07,32.08,32.08,0,1,1,3.27,64H97.26A22.06,22.06,0,0,1,75.2,168.58Z"/></g></g></svg>