<svg xmlns="http://www.w3.org/2000/svg" viewBox="0 0 188.19 164.51"><defs><style>.cls-1{fill:#fda75d;}.cls-2{fill:#ffb379;}.cls-3{fill:#5199af;}.cls-4{fill:#65a5bf;}.cls-5{fill:#62a6c4;}.cls-6{fill:#6fadcd;}</style></defs><title>Asset 6</title><g id="Layer_2" data-name="Layer 2"><g id="Objects"><path class="cls-1" d="M138.66,64.1a42.39,42.39,0,0,0,4-64.1A56.26,56.26,0,1,1,75.88,50.54,42.42,42.42,0,0,0,138.66,64.1Z"/><path class="cls-2" d="M165.87,100.08a56.26,56.26,0,0,1-74.52-5.92A56,56,0,0,1,83.82,61,42.36,42.36,0,1,0,150.64,10.5a56.06,56.06,0,0,1,29.82,16.26A56.27,56.27,0,0,1,165.87,100.08Z"/><path class="cls-2" d="M174.27,73.64h.1a46.57,46.57,0,0,1-10.22,14.89,49.14,49.14,0,0,1-4.25,3.64,46.4,46.4,0,0,1-15.16,7.49,47.09,47.09,0,0,0,15.11-7.54A46.4,46.4,0,0,0,174.27,73.64Z"/><path class="cls-2" d="M133.07,101.43a46.52,46.52,0,0,0,10.5-1.44,45.28,45.28,0,0,1-10.5,1.46Z"/><path class="cls-3" d="M13,97.28a32.08,32.08,0,0,1,60-21.85,32.09,32.09,0,1,1,3.27,64H22.06A22.06,22.06,0,0,1,13,97.28Z"/><path class="cls-4" d="M15,117.38a22,22,0,0,1,13-20.1A32.06,32.06,0,0,1,51.65,58.36,32.13,32.13,0,0,1,72.93,75.43a32.09,32.09,0,1,1,3.27,64H37.1A22.06,22.06,0,0,1,15,117.38Z"/><path class="cls-5" d="M73.13,122.35a32.09,32.09,0,0,1,60-21.85,32.09,32.09,0,1,1,3.27,64H82.22a22.06,22.06,0,0,1-9.09-42.16Z"/><path class="cls-6" d="M75.2,142.45a22.06,22.06,0,0,1,13-20.1,32.1,32.1,0,0,1,23.64-38.92,32.13,32.13,0,0,1,21.28,17.07,32.09,32.09,0,1,1,3.27,64H97.26A22.06,22.06,0,0,1,75.2,142.45Z"/></g></g></svg>