<svg xmlns="http://www.w3.org/2000/svg" viewBox="0 0 168.45 160.52"><defs><style>.cls-1{fill:#fda75d;}.cls-2{fill:#ffb379;}.cls-3{fill:#5199af;}.cls-4{fill:#65a5bf;}.cls-5{fill:#62a6c4;}.cls-6{fill:#6fadcd;}</style></defs><title>Asset 8</title><g id="Layer_2" data-name="Layer 2"><g id="Objects"><polygon class="cls-1" points="108.84 107.04 125.83 107.04 140.38 128.36 114.23 128.36 121.18 160.53 92.24 117.58 116.13 117.58 108.84 107.04"/><polygon class="cls-1" points="104.83 107.04 121.82 107.04 136.37 128.36 110.22 128.36 120.68 160.53 88.23 117.58 112.12 117.58 104.83 107.04"/><polygon class="cls-2" points="110.22 128.36 113.1 137.22 98.26 117.58 112.12 117.58 122.14 117.58 114.86 107.04 121.82 107.04 136.37 128.36 120.24 128.36 110.22 128.36"/><path class="cls-3" d="M13,39.81a31.7,31.7,0,0,1-1-7.72A32.09,32.09,0,0,1,72.93,18,32.08,32.08,0,1,1,76.2,82H22.06A22.06,22.06,0,0,1,13,39.81Z"/><path class="cls-4" d="M15,59.92A22.08,22.08,0,0,1,28,39.81a31.7,31.7,0,0,1-.95-7.72A32.1,32.1,0,0,1,51.65.89,32.17,32.17,0,0,1,72.93,18,32.08,32.08,0,1,1,76.2,82H37.1A22.06,22.06,0,0,1,15,59.92Z"/><path class="cls-5" d="M73.14,64.88a31.72,31.72,0,0,1-1-7.73A32.09,32.09,0,0,1,133.09,43a32.09,32.09,0,1,1,3.28,64H82.22a22.06,22.06,0,0,1-9.08-42.16Z"/><path class="cls-6" d="M75.2,85a22.06,22.06,0,0,1,13-20.1,31.72,31.72,0,0,1-1-7.73A32.09,32.09,0,0,1,111.81,26,32.13,32.13,0,0,1,133.09,43a32.09,32.09,0,1,1,3.28,64H97.26A22.06,22.06,0,0,1,75.2,85Z"/></g></g></svg>