<svg xmlns="http://www.w3.org/2000/svg" viewBox="0 0 168.45 173.19"><defs><style>.cls-1{fill:#5199af;}.cls-2{fill:#65a5bf;}.cls-3{fill:#62a6c4;}.cls-4{fill:#6fadcd;}.cls-5{fill:#9ac6ce;}.cls-6{fill:#aed2dc;}</style></defs><title>Asset 3</title><g id="Layer_2" data-name="Layer 2"><g id="Objects"><path class="cls-1" d="M13,39.81A32.09,32.09,0,0,1,72.93,18,32.08,32.08,0,1,1,76.2,82H22.06A22.06,22.06,0,0,1,13,39.81Z"/><path class="cls-2" d="M15,59.91a22.08,22.08,0,0,1,13-20.1A32.1,32.1,0,0,1,51.64.89,32.17,32.17,0,0,1,72.93,18,32.08,32.08,0,1,1,76.2,82H37.1A22.06,22.06,0,0,1,15,59.91Z"/><path class="cls-3" d="M73.13,64.88a32.09,32.09,0,0,1,60-21.85,32.09,32.09,0,1,1,3.27,64H82.22a22.06,22.06,0,0,1-9.09-42.16Z"/><path class="cls-4" d="M75.2,85a22.06,22.06,0,0,1,13-20.1,31.72,31.72,0,0,1-1-7.73A32.09,32.09,0,0,1,111.81,26,32.13,32.13,0,0,1,133.09,43a32.09,32.09,0,1,1,3.27,64H97.26A22.06,22.06,0,0,1,75.2,85Z"/><path class="cls-5" d="M123,143.36c0-6.64,12-27.07,12-27.07s12,20.43,12,27.07a12,12,0,1,1-24.06,0Z"/><path class="cls-6" d="M140,125.39c3.31,6.33,7,14.28,7,18a12,12,0,0,1-7,10.94,12,12,0,0,1-7-10.94C133,139.67,136.73,131.72,140,125.39Z"/><path class="cls-5" d="M84.27,161.15c0-6.64,12-27.07,12-27.07s12,20.43,12,27.07a12,12,0,1,1-24.06,0Z"/><path class="cls-6" d="M101.31,143.18c3.3,6.33,7,14.28,7,18a12,12,0,0,1-7,10.94,12,12,0,0,1-7-10.94C94.29,157.46,98,149.51,101.31,143.18Z"/></g></g></svg>