<svg xmlns="http://www.w3.org/2000/svg" viewBox="0 0 228.86 242.58"><defs><style>.cls-1{fill:#5199af;}.cls-2{fill:#65a5bf;}.cls-3{fill:#fda75d;}.cls-4{fill:#ffb379;}.cls-5{fill:#62a6c4;}.cls-6{fill:#6fadcd;}.cls-7{fill:#9ac6ce;}.cls-8{fill:#aed2dc;}</style></defs><title>Asset 11</title><g id="Layer_2" data-name="Layer 2"><g id="Objects"><path class="cls-1" d="M13,105.8A32.09,32.09,0,0,1,72.93,84a32.09,32.09,0,1,1,3.27,64H22.06A22.06,22.06,0,0,1,13,105.8Z"/><path class="cls-2" d="M15,125.9a22.07,22.07,0,0,1,13-20.1A32.1,32.1,0,0,1,51.64,66.88,32.12,32.12,0,0,1,72.93,84a32.09,32.09,0,1,1,3.27,64H37.1A22.06,22.06,0,0,1,15,125.9Z"/><path class="cls-3" d="M96.12,87.34A42.89,42.89,0,1,1,139,130.22,42.89,42.89,0,0,1,96.12,87.34Z"/><path class="cls-4" d="M144,44.75a42.88,42.88,0,0,1,0,85.17,42.88,42.88,0,0,1,0-85.17Z"/><path class="cls-4" d="M167.69,68.46l.05-.06a34.64,34.64,0,0,1,2.2,30,36.1,36.1,0,0,0,2.36-12.65A35.37,35.37,0,0,0,167.69,68.46Z"/><path class="cls-4" d="M165.64,106.26a35.78,35.78,0,0,0,4-7,34.35,34.35,0,0,1-3.94,7Z"/><path class="cls-3" d="M137.77,4.25A4.25,4.25,0,0,1,142,0h0a4.24,4.24,0,0,1,4.24,4.25V28.41A4.24,4.24,0,0,1,142,32.65h0a4.24,4.24,0,0,1-4.25-4.24Z"/><path class="cls-3" d="M136.77,4.25A4.25,4.25,0,0,1,141,0h0a4.24,4.24,0,0,1,4.24,4.25V28.41A4.24,4.24,0,0,1,141,32.65h0a4.24,4.24,0,0,1-4.25-4.24Z"/><path class="cls-3" d="M137.77,146.27A4.25,4.25,0,0,1,142,142h0a4.24,4.24,0,0,1,4.24,4.25v24.16a4.25,4.25,0,0,1-4.24,4.25h0a4.25,4.25,0,0,1-4.25-4.25Z"/><path class="cls-3" d="M136.77,146.27A4.25,4.25,0,0,1,141,142h0a4.24,4.24,0,0,1,4.24,4.25v24.16a4.25,4.25,0,0,1-4.24,4.25h0a4.25,4.25,0,0,1-4.25-4.25Z"/><path class="cls-3" d="M58.42,91.08a4.24,4.24,0,0,1-4.24-4.24h0a4.24,4.24,0,0,1,4.24-4.25H82.59a4.24,4.24,0,0,1,4.24,4.25h0a4.24,4.24,0,0,1-4.24,4.24Z"/><path class="cls-3" d="M58.42,92.08a4.24,4.24,0,0,1-4.24-4.24h0a4.24,4.24,0,0,1,4.24-4.25H82.59a4.24,4.24,0,0,1,4.24,4.25h0a4.24,4.24,0,0,1-4.24,4.24Z"/><path class="cls-3" d="M200.45,91.08a4.24,4.24,0,0,1-4.25-4.24h0a4.25,4.25,0,0,1,4.25-4.25h24.16a4.25,4.25,0,0,1,4.25,4.25h0a4.24,4.24,0,0,1-4.25,4.24Z"/><path class="cls-3" d="M200.45,92.08a4.24,4.24,0,0,1-4.25-4.24h0a4.25,4.25,0,0,1,4.25-4.25h24.16a4.25,4.25,0,0,1,4.25,4.25h0a4.24,4.24,0,0,1-4.25,4.24Z"/><path class="cls-3" d="M85.41,148.74a4.24,4.24,0,0,1-6,0h0a4.24,4.24,0,0,1,0-6l17.08-17.09a4.25,4.25,0,0,1,6,0h0a4.27,4.27,0,0,1,0,6Z"/><path class="cls-3" d="M86.12,149.45a4.25,4.25,0,0,1-6,0h0a4.27,4.27,0,0,1,0-6L97.2,126.36a4.24,4.24,0,0,1,6,0h0a4.25,4.25,0,0,1,0,6Z"/><path class="cls-3" d="M185.84,48.31a4.25,4.25,0,0,1-6,0h0a4.24,4.24,0,0,1,0-6l17.09-17.09a4.26,4.26,0,0,1,6,0h0a4.25,4.25,0,0,1,0,6Z"/><path class="cls-3" d="M186.54,49a4.24,4.24,0,0,1-6,0h0a4.24,4.24,0,0,1,0-6l17.09-17.09a4.25,4.25,0,0,1,6,0h0a4.24,4.24,0,0,1,0,6Z"/><path class="cls-3" d="M202.92,143.44a4.25,4.25,0,0,1,0,6h0a4.25,4.25,0,0,1-6,0l-17.08-17.08a4.25,4.25,0,0,1,0-6h0a4.25,4.25,0,0,1,6,0Z"/><path class="cls-3" d="M203.63,142.74a4.24,4.24,0,0,1,0,6h0a4.25,4.25,0,0,1-6,0l-17.08-17.08a4.25,4.25,0,0,1,0-6h0a4.24,4.24,0,0,1,6,0Z"/><path class="cls-3" d="M102.49,43a4.24,4.24,0,0,1,0,6h0a4.24,4.24,0,0,1-6,0L79.41,31.94a4.25,4.25,0,0,1,0-6h0a4.26,4.26,0,0,1,6,0Z"/><path class="cls-3" d="M103.2,42.31a4.24,4.24,0,0,1,0,6h0a4.24,4.24,0,0,1-6,0L80.11,31.23a4.27,4.27,0,0,1,0-6h0a4.27,4.27,0,0,1,6,0Z"/><path class="cls-5" d="M73.13,130.87a32.09,32.09,0,0,1,60-21.85,32.09,32.09,0,1,1,3.27,64H82.22a22.06,22.06,0,0,1-9.09-42.16Z"/><path class="cls-6" d="M75.2,151a22.06,22.06,0,0,1,13-20.1A32.1,32.1,0,0,1,111.8,92,32.12,32.12,0,0,1,133.09,109a32.09,32.09,0,1,1,3.27,64H97.26A22.06,22.06,0,0,1,75.2,151Z"/><path class="cls-7" d="M125.29,212.75c0-6.64,12-27.07,12-27.07s12,20.43,12,27.07a12,12,0,0,1-24.06,0Z"/><path class="cls-8" d="M142.33,194.78c3.3,6.33,7,14.28,7,18a12,12,0,0,1-7,10.94,12,12,0,0,1-7-10.94C135.31,209.06,139,201.11,142.33,194.78Z"/><path class="cls-7" d="M86.56,230.54c0-6.64,12-27.07,12-27.07s12,20.43,12,27.07a12,12,0,1,1-24.07,0Z"/><path class="cls-8" d="M103.61,212.57c3.3,6.33,7,14.28,7,18a12,12,0,0,1-7,10.94,12,12,0,0,1-7-10.94C96.59,226.85,100.31,218.9,103.61,212.57Z"/></g></g></svg>