<svg xmlns="http://www.w3.org/2000/svg" viewBox="0 0 188.19 233.06"><defs><style>.cls-1{fill:#fda75d;}.cls-2{fill:#ffb379;}.cls-3{fill:#5199af;}.cls-4{fill:#65a5bf;}.cls-5{fill:#62a6c4;}.cls-6{fill:#6fadcd;}.cls-7{fill:#9ac6ce;}.cls-8{fill:#aed2dc;}</style></defs><title>Asset 10</title><g id="Layer_2" data-name="Layer 2"><g id="Objects"><path class="cls-1" d="M138.66,64.1a42.39,42.39,0,0,0,4-64.1A56.26,56.26,0,1,1,75.88,50.54a43.09,43.09,0,0,0,3.44,5.33A42.37,42.37,0,0,0,138.66,64.1Z"/><path class="cls-2" d="M165.87,100.08a56.27,56.27,0,0,1-74.52-5.92A56,56,0,0,1,83.81,61a43.51,43.51,0,0,0,3.44,5.33A42.37,42.37,0,1,0,150.64,10.5a56,56,0,0,1,29.82,16.27A56.26,56.26,0,0,1,165.87,100.08Z"/><path class="cls-2" d="M174.27,73.64l.1,0a46.64,46.64,0,0,1-10.22,14.88,49.14,49.14,0,0,1-4.25,3.64,46.4,46.4,0,0,1-15.16,7.49,47,47,0,0,0,15.11-7.54A46.4,46.4,0,0,0,174.27,73.64Z"/><path class="cls-2" d="M133.07,101.43a47.09,47.09,0,0,0,10.5-1.44,45.28,45.28,0,0,1-10.5,1.46Z"/><path class="cls-3" d="M13,97.28a32.08,32.08,0,0,1,60-21.85,32.09,32.09,0,1,1,3.27,64H22.06A22.06,22.06,0,0,1,13,97.28Z"/><path class="cls-4" d="M15,117.38a22.05,22.05,0,0,1,13-20.1A32.1,32.1,0,0,1,51.65,58.36,32.13,32.13,0,0,1,72.93,75.43a32.09,32.09,0,1,1,3.27,64H37.1A22.06,22.06,0,0,1,15,117.38Z"/><path class="cls-5" d="M73.13,122.35a32.09,32.09,0,0,1,60-21.85,32.08,32.08,0,1,1,3.27,64H82.22a22.05,22.05,0,0,1-9.09-42.15Z"/><path class="cls-6" d="M75.2,142.45a22.06,22.06,0,0,1,13-20.1A32.1,32.1,0,0,1,111.8,83.43a32.12,32.12,0,0,1,21.29,17.07,32.08,32.08,0,1,1,3.27,64H97.26A22.06,22.06,0,0,1,75.2,142.45Z"/><path class="cls-7" d="M119.15,203.24c0-6.65,12-27.07,12-27.07s12,20.42,12,27.07a12,12,0,0,1-24.06,0Z"/><path class="cls-8" d="M136.19,185.26c3.3,6.33,7,14.28,7,18a12,12,0,0,1-7,10.93,12,12,0,0,1-7-10.93C129.17,199.54,132.89,191.59,136.19,185.26Z"/><path class="cls-7" d="M80.42,221c0-6.65,12-27.07,12-27.07s12,20.42,12,27.07a12,12,0,0,1-24.07,0Z"/><path class="cls-8" d="M97.47,203.05c3.3,6.34,7,14.28,7,18a12.05,12.05,0,0,1-7,10.94,12.05,12.05,0,0,1-7-10.94C90.45,217.33,94.17,209.39,97.47,203.05Z"/></g></g></svg>