<svg id="Layer_1" data-name="Layer 1" xmlns="http://www.w3.org/2000/svg" viewBox="0 0 168.65 170.62"><defs><style>.cls-1{fill:#5199af;}.cls-2{fill:#65a5bf;}.cls-3{fill:#62a6c4;}.cls-4{fill:#6fadcd;}.cls-10,.cls-5,.cls-8,.cls-9{fill:#b0dce7;stroke:#b0dce7;}.cls-5{stroke-width:0.07px;}.cls-6{fill:#8bc2c4;}.cls-7{fill:#c9e6ed;}.cls-8{stroke-width:0.05px;}.cls-9{stroke-width:0.04px;}.cls-10{stroke-width:0.05px;}</style></defs><title>13d</title><g id="Layer_2" data-name="Layer 2"><g id="Objects"><path class="cls-1" d="M13,39.81A32.09,32.09,0,0,1,72.93,18a32.08,32.08,0,0,1,6.4,63.84c-1,.1-2.09.16-3.13.16H22.06A22.06,22.06,0,0,1,13,39.81Z" transform="translate(0.04 -0.19)"/><path class="cls-2" d="M15,59.91a22.09,22.09,0,0,1,13-20.1A32.1,32.1,0,0,1,51.45.94l.19,0A32.17,32.17,0,0,1,72.93,18a32.08,32.08,0,0,1,6.4,63.84c-1,.1-2.09.16-3.13.16H37.1A22.06,22.06,0,0,1,15,60Z" transform="translate(0.04 -0.19)"/><path class="cls-3" d="M73.13,64.88a32.09,32.09,0,0,1,60-21.85,32.09,32.09,0,1,1,6.78,63.82,34.23,34.23,0,0,1-3.51.18H82.22a22.06,22.06,0,0,1-9.09-42.16Z" transform="translate(0.04 -0.19)"/><path class="cls-4" d="M75.2,85a22.07,22.07,0,0,1,13-20.1,31.52,31.52,0,0,1-1-7.73A32.09,32.09,0,0,1,111.81,26a32.13,32.13,0,0,1,21.28,17,32.09,32.09,0,1,1,6.78,63.82,34.23,34.23,0,0,1-3.51.18H97.26A22.06,22.06,0,0,1,75.2,85Z" transform="translate(0.04 -0.19)"/></g></g><path class="cls-5" d="M109,149.31l-.71-2.67-7.85,2.11-5.9-3.4a9.67,9.67,0,0,0,.7-3.61,9.42,9.42,0,0,0-.66-3.49l5.86-3.39,7.85,2.12.71-2.67-5.19-1.39,6.67-3.85-1.38-2.39-6.67,3.86,1.39-5.19-2.66-.72-2.1,7.85-5.84,3.37a9.66,9.66,0,0,0-6.18-3.6v-6.71l5.75-5.75-1.95-1.94-3.8,3.8V114H84.31v7.7l-3.8-3.8-2,1.94,5.75,5.75v6.71a9.66,9.66,0,0,0-6.18,3.6l-5.84-3.37-2.1-7.85-2.67.72,1.4,5.19-6.67-3.86-1.38,2.39,6.67,3.85-5.19,1.39.71,2.67,7.85-2.12,5.85,3.39a9.68,9.68,0,0,0,0,7.1l-5.9,3.4-7.85-2.11-.71,2.67,5.19,1.39-6.67,3.85,1.38,2.38,6.67-3.85-1.4,5.19,2.67.72,2.1-7.85,5.91-3.42a9.56,9.56,0,0,0,6.11,3.5v6.86l-5.75,5.74,2,2,3.8-3.81v7.7h2.76V162l3.8,3.81,1.95-2-5.75-5.74v-6.86a9.47,9.47,0,0,0,6.1-3.5l5.92,3.42L101.2,159l2.65-.72-1.39-5.19,6.67,3.85,1.38-2.38-6.67-3.85Zm-23.34-1.17A6.34,6.34,0,1,1,92,141.81,6.33,6.33,0,0,1,85.69,148.14Z" transform="translate(0.04 -0.19)"/><path class="cls-6" d="M110.44,150.12l-1.31-4.88-8.5,2.28L96,144.83a10.77,10.77,0,0,0,0-6.06l4.63-2.67,8.5,2.28,1.31-4.88-3.63-1,5.26-3-2.52-4.37-5.26,3,1-3.62-4.88-1.32-2.28,8.51-4.6,2.65a10.62,10.62,0,0,0-5.28-3.07V126l6.22-6.23-3.57-3.56-2.65,2.65V112.8H83.16v6.08l-2.65-2.65-3.57,3.56L83.16,126v5.29a10.62,10.62,0,0,0-5.28,3.07l-4.61-2.65L71,123.22l-4.89,1.32,1,3.62-5.26-3-2.53,4.37,5.27,3-3.63,1,1.31,4.88,8.5-2.28,4.63,2.67a10.77,10.77,0,0,0,0,6.06l-4.66,2.69-8.5-2.28-1.31,4.88,3.63,1-5.27,3,2.53,4.37,5.26-3-1,3.63L71,160.4l2.27-8.51,4.69-2.7a10.66,10.66,0,0,0,5.2,3v5.43l-6.22,6.22,3.57,3.57,2.65-2.64v6.06h5.06v-6.06l2.65,2.64,3.57-3.57-6.22-6.22v-5.43a10.63,10.63,0,0,0,5.19-3l4.7,2.7,2.27,8.51,4.88-1.31-1-3.63,5.26,3,2.52-4.37-5.26-3Zm-19.57-8.31a5.19,5.19,0,1,1-5.18-5.19A5.19,5.19,0,0,1,90.87,141.81Z" transform="translate(0.04 -0.19)"/><path class="cls-7" d="M109,149.31l-.71-2.67-7.85,2.11-5.9-3.4a9.67,9.67,0,0,0,.7-3.61,9.42,9.42,0,0,0-.66-3.49l5.86-3.39,7.85,2.12.71-2.67-5.19-1.39,6.67-3.85-1.38-2.39-6.67,3.86,1.39-5.19-2.66-.72-2.1,7.85-5.84,3.37a9.66,9.66,0,0,0-6.18-3.6v-6.71l5.75-5.75-1.95-1.94-3.8,3.8V114H84.31v7.7l-3.8-3.8-2,1.94,5.75,5.75v6.71a9.66,9.66,0,0,0-6.18,3.6l-5.84-3.37-2.1-7.85-2.67.72,1.4,5.19-6.67-3.86-1.38,2.39,6.67,3.85-5.19,1.39.71,2.67,7.85-2.12,5.85,3.39a9.68,9.68,0,0,0,0,7.1l-5.9,3.4-7.85-2.11-.71,2.67,5.19,1.39-6.67,3.85,1.38,2.38,6.67-3.85-1.4,5.19,2.67.72,2.1-7.85,5.91-3.42a9.51,9.51,0,0,0,6.11,3.5v6.86l-5.75,5.74,2,2,3.8-3.8v7.7h2.76V162l3.8,3.8,1.95-2-5.75-5.74v-6.86a9.47,9.47,0,0,0,6.1-3.5l5.92,3.42L101.2,159l2.65-.72-1.39-5.19,6.67,3.85,1.38-2.38-6.67-3.85Zm-23.34-1.17A6.34,6.34,0,1,1,92,141.81,6.33,6.33,0,0,1,85.69,148.14Z" transform="translate(0.04 -0.19)"/><path class="cls-8" d="M40,111.32l-.46-1.73L34.4,111l-3.82-2.21a6.45,6.45,0,0,0,.45-2.34,6.06,6.06,0,0,0-.43-2.26L34.4,102l5.09,1.36L40,101.6l-3.37-.9,4.32-2.5L40,96.65l-4.32,2.5.9-3.36-1.72-.46-1.36,5.08-3.79,2.18a6.18,6.18,0,0,0-4-2.32V95.91l3.73-3.72-1.26-1.27-2.47,2.47v-5H23.93v5l-2.46-2.47L20.2,92.19l3.73,3.72v4.36a6.23,6.23,0,0,0-4,2.32l-3.78-2.18-1.37-5.08-1.72.46.9,3.36-4.32-2.5-.9,1.55,4.33,2.5-3.37.9.47,1.72L15.24,102l3.8,2.19a6.17,6.17,0,0,0,0,4.6L15.24,111l-5.08-1.37-.47,1.73,3.37.9-4.33,2.49.9,1.55L14,113.77l-.9,3.36,1.72.46,1.37-5.09L20,110.29a6.16,6.16,0,0,0,4,2.27V117l-3.73,3.72L21.47,122l2.46-2.46v5h1.78v-5L28.18,122l1.26-1.27L25.71,117v-4.44a6.16,6.16,0,0,0,4-2.27l3.84,2.21,1.36,5.09,1.72-.46-.9-3.36L40,116.26l.89-1.55-4.32-2.49Zm-15.13-.76a4.11,4.11,0,1,1,4.1-4.1A4.1,4.1,0,0,1,24.82,110.56Z" transform="translate(0.04 -0.19)"/><path class="cls-6" d="M40.86,111.84,40,108.68l-5.51,1.47-3-1.74a6.68,6.68,0,0,0,.29-2,6.9,6.9,0,0,0-.27-1.92l3-1.73L40,104.23l.85-3.16-2.35-.63,3.41-2-1.64-2.84-3.41,2,.63-2.35-3.16-.85-1.47,5.51-3,1.72a6.83,6.83,0,0,0-3.42-2V96.22l4-4-2.31-2.31L26.46,91.6V87.65H23.18V91.6l-1.71-1.72-2.32,2.31,4,4v3.44a6.83,6.83,0,0,0-3.42,2l-3-1.72L15.3,94.41l-3.17.85.64,2.35-3.41-2L7.72,98.48l3.41,2-2.35.63.85,3.16,5.51-1.47,3,1.73a6.9,6.9,0,0,0-.27,1.92,7,7,0,0,0,.29,2l-3,1.74-5.51-1.47-.85,3.16,2.35.63-3.41,2,1.64,2.83,3.41-2-.64,2.35,3.17.84L16.78,113l3-1.75a6.86,6.86,0,0,0,3.37,1.93v3.52l-4,4L21.47,123l1.71-1.72v3.94h3.28v-3.94L28.18,123l2.31-2.31-4-4v-3.52a6.91,6.91,0,0,0,3.37-1.93l3,1.75,1.47,5.51,3.16-.84-.63-2.35,3.41,2,1.64-2.83-3.41-2Zm-12.68-5.38a3.36,3.36,0,1,1-3.36-3.36A3.37,3.37,0,0,1,28.18,106.46Z" transform="translate(0.04 -0.19)"/><path class="cls-7" d="M40,111.32l-.46-1.73L34.4,111l-3.82-2.21a6.45,6.45,0,0,0,.45-2.34,6.06,6.06,0,0,0-.43-2.26L34.4,102l5.09,1.36L40,101.6l-3.37-.9,4.32-2.5L40,96.65l-4.32,2.5.9-3.36-1.72-.46-1.36,5.08-3.79,2.18a6.18,6.18,0,0,0-4-2.32V95.91l3.73-3.72-1.26-1.27-2.47,2.47v-5H23.93v5l-2.46-2.47L20.2,92.19l3.73,3.72v4.36a6.23,6.23,0,0,0-4,2.32l-3.78-2.18-1.37-5.08-1.72.46.9,3.36-4.32-2.5-.9,1.55,4.33,2.5-3.37.9.47,1.72L15.24,102l3.8,2.19a6.17,6.17,0,0,0,0,4.6L15.24,111l-5.08-1.37-.47,1.73,3.37.9-4.33,2.49.9,1.55L14,113.77l-.9,3.36,1.72.46,1.37-5.09L20,110.29a6.16,6.16,0,0,0,4,2.27V117l-3.73,3.72L21.47,122l2.46-2.46v5h1.78v-5L28.18,122l1.26-1.27L25.71,117v-4.44a6.16,6.16,0,0,0,4-2.27l3.84,2.21,1.36,5.09,1.72-.46-.9-3.36L40,116.26l.89-1.55-4.32-2.49Zm-15.13-.76a4.11,4.11,0,1,1,4.1-4.1A4.1,4.1,0,0,1,24.82,110.56Z" transform="translate(0.04 -0.19)"/><path class="cls-9" d="M47.89,148.4l-.34-1.26-3.72,1L41,146.52a4.47,4.47,0,0,0,0-3.37l2.78-1.6,3.72,1,.34-1.26-2.46-.66,3.16-1.83-.65-1.13-3.16,1.82.65-2.46-1.26-.33-1,3.72L40.4,142a4.54,4.54,0,0,0-2.93-1.71v-3.18l2.73-2.73-.92-.93-1.81,1.81v-3.65h-1.3v3.65l-1.8-1.81-.93.93,2.73,2.73v3.18A4.54,4.54,0,0,0,33.24,142l-2.77-1.6-1-3.72L28.2,137l.66,2.46-3.16-1.82-.65,1.13,3.17,1.83-2.47.66.34,1.26,3.72-1,2.78,1.6a4.58,4.58,0,0,0-.32,1.66,4.42,4.42,0,0,0,.34,1.71l-2.8,1.61-3.72-1-.34,1.26,2.47.65-3.17,1.84L25.7,152l3.16-1.82-.66,2.46,1.27.34,1-3.73,2.8-1.62a4.53,4.53,0,0,0,2.9,1.67v3.25l-2.73,2.72.93.92,1.8-1.79v3.64h1.3v-3.64l1.81,1.79.92-.92-2.73-2.72v-3.25a4.51,4.51,0,0,0,2.9-1.67l2.8,1.62,1,3.73,1.26-.34-.65-2.46L47.94,152l.65-1.13-3.16-1.84Zm-11.07-.55a3,3,0,1,1,3-3A3,3,0,0,1,36.82,147.85Z" transform="translate(0.04 -0.19)"/><path class="cls-6" d="M48.56,148.78l-.62-2.31-4,1.08-2.21-1.27a4.9,4.9,0,0,0,.22-1.47,5,5,0,0,0-.2-1.4l2.19-1.28,4,1.09.62-2.32-1.72-.46L49.33,139l-1.2-2.07-2.49,1.44.46-1.72L43.78,136l-1.07,4-2.18,1.26A5,5,0,0,0,38,139.87v-2.52L41,134.4l-1.69-1.69L38,134v-2.88h-2.4V134l-1.25-1.26-1.7,1.69,2.95,2.95v2.52a5,5,0,0,0-2.5,1.45l-2.19-1.26-1.08-4-2.31.62.46,1.72-2.49-1.44L24.31,139l2.5,1.44-1.73.46.62,2.32,4-1.09,2.2,1.28a5,5,0,0,0-.2,1.4,5.61,5.61,0,0,0,.21,1.47l-2.21,1.27-4-1.08-.62,2.31,1.73.47-2.5,1.43,1.2,2.07L28,151.32,27.54,153l2.31.62,1.08-4,2.23-1.28a5,5,0,0,0,2.46,1.41v2.58l-2.95,2.95,1.7,1.69,1.25-1.26v2.89H38v-2.89L39.28,157,41,155.28,38,152.33v-2.58a5,5,0,0,0,2.47-1.41l2.22,1.28,1.07,4L46.1,153l-.46-1.72,2.49,1.43,1.2-2.07-2.49-1.43Zm-9.28-3.94a2.46,2.46,0,1,1-2.46-2.46A2.46,2.46,0,0,1,39.28,144.84Z" transform="translate(0.04 -0.19)"/><path class="cls-7" d="M47.89,148.4l-.34-1.26-3.72,1L41,146.52a4.47,4.47,0,0,0,0-3.37l2.78-1.6,3.72,1,.34-1.26-2.46-.66,3.16-1.83-.65-1.13-3.16,1.82.65-2.46-1.26-.33-1,3.72L40.4,142a4.54,4.54,0,0,0-2.93-1.71v-3.18l2.73-2.73-.92-.93-1.81,1.81v-3.65h-1.3v3.65l-1.8-1.81-.93.93,2.73,2.73v3.18A4.54,4.54,0,0,0,33.24,142l-2.77-1.6-1-3.72L28.2,137l.66,2.46-3.16-1.82-.65,1.13,3.17,1.83-2.47.66.34,1.26,3.72-1,2.78,1.6a4.58,4.58,0,0,0-.32,1.66,4.42,4.42,0,0,0,.34,1.71l-2.8,1.61-3.72-1-.34,1.26,2.47.65-3.17,1.84L25.7,152l3.16-1.82-.66,2.46,1.27.34,1-3.73,2.8-1.62a4.53,4.53,0,0,0,2.9,1.67v3.25l-2.73,2.72.93.92,1.8-1.79v3.64h1.3v-3.64l1.81,1.79.92-.92-2.73-2.72v-3.25a4.51,4.51,0,0,0,2.9-1.67l2.8,1.62,1,3.73,1.26-.34-.65-2.46L47.94,152l.65-1.12-3.16-1.84Zm-11.07-.55a3,3,0,1,1,3-3A3,3,0,0,1,36.82,147.85Z" transform="translate(0.04 -0.19)"/><path class="cls-10" d="M155.6,136.15l-.51-1.88-5.57,1.49-4.18-2.41a7,7,0,0,0,.5-2.56,6.79,6.79,0,0,0-.47-2.48l4.15-2.4,5.57,1.5.51-1.89-3.69-1,4.72-2.73-1-1.7-4.72,2.73,1-3.68-1.9-.5-1.49,5.57-4.13,2.38a6.82,6.82,0,0,0-4.39-2.54v-4.76l4.08-4.08-1.38-1.38-2.7,2.69v-5.45h-2v5.45l-2.7-2.69L134,115.23l4.08,4.08v4.76a6.82,6.82,0,0,0-4.39,2.54l-4.14-2.38-1.48-5.57-1.89.5,1,3.68-4.73-2.73-1,1.7,4.73,2.73-3.68,1,.5,1.89,5.57-1.5,4.15,2.4a6.92,6.92,0,0,0,0,5l-4.18,2.41L123,134.27l-.5,1.88,3.68,1-4.73,2.72,1,1.69,4.73-2.73-1,3.68,1.89.51,1.48-5.57,4.19-2.42a6.84,6.84,0,0,0,4.34,2.49v4.85L134,146.45l1.38,1.38,2.7-2.7v5.46h2v-5.46l2.7,2.7,1.38-1.38L140,142.37v-4.85a6.75,6.75,0,0,0,4.33-2.49l4.19,2.42L150,143l1.89-.51-1-3.68,4.72,2.73,1-1.69-4.72-2.72ZM139,135.33a4.49,4.49,0,1,1,4.49-4.49A4.49,4.49,0,0,1,139,135.33Z" transform="translate(0.04 -0.19)"/><path class="cls-6" d="M156.59,136.73l-.93-3.46-6,1.62-3.3-1.91a8.1,8.1,0,0,0,.31-2.19,7.52,7.52,0,0,0-.3-2.11l3.29-1.89,6,1.62.93-3.47-2.57-.68,3.73-2.15L156,119l-3.73,2.16.69-2.57-3.46-.92-1.62,6-3.26,1.87a7.6,7.6,0,0,0-3.75-2.18v-3.74l4.42-4.42-2.53-2.53-1.89,1.88v-4.31h-3.57v4.31l-1.89-1.88-2.53,2.53,4.42,4.42v3.74a7.6,7.6,0,0,0-3.75,2.18l-3.27-1.87-1.6-6-3.47.92.69,2.57L122.13,119l-1.79,3.11,3.73,2.15-2.57.68.93,3.47,6-1.62,3.29,1.89a7.47,7.47,0,0,0-.3,2.11,8.1,8.1,0,0,0,.31,2.19l-3.3,1.91-6-1.62-.93,3.46,2.57.69-3.73,2.15,1.79,3.1,3.73-2.15-.69,2.57,3.47.93,1.6-6,3.33-1.92a7.52,7.52,0,0,0,3.69,2.12V142l-4.42,4.41,2.53,2.53,1.89-1.88v4.3h3.57v-4.3l1.89,1.88,2.53-2.53L140.83,142v-3.85a7.56,7.56,0,0,0,3.69-2.12l3.32,1.92,1.62,6,3.46-.93-.69-2.57,3.73,2.15,1.79-3.1L154,137.42Zm-13.87-5.89a3.68,3.68,0,1,1-3.68-3.68A3.68,3.68,0,0,1,142.72,130.84Z" transform="translate(0.04 -0.19)"/><path class="cls-7" d="M155.6,136.15l-.51-1.88-5.57,1.49-4.18-2.41a7,7,0,0,0,.5-2.56,6.79,6.79,0,0,0-.47-2.48l4.15-2.4,5.57,1.5.51-1.89-3.69-1,4.72-2.73-1-1.7-4.72,2.73,1-3.68-1.9-.5-1.49,5.57-4.13,2.38a6.82,6.82,0,0,0-4.39-2.54v-4.76l4.08-4.08-1.38-1.38-2.7,2.69v-5.45h-2v5.45l-2.7-2.69L134,115.23l4.08,4.08v4.76a6.82,6.82,0,0,0-4.39,2.54l-4.14-2.38-1.48-5.57-1.89.5,1,3.68-4.73-2.73-1,1.7,4.73,2.73-3.68,1,.5,1.89,5.57-1.5,4.15,2.4a6.92,6.92,0,0,0,0,5l-4.18,2.41L123,134.27l-.5,1.88,3.68,1-4.73,2.72,1,1.69,4.73-2.73-1,3.68,1.89.51,1.48-5.57,4.19-2.42a6.8,6.8,0,0,0,4.34,2.49v4.85L134,146.45l1.38,1.37,2.7-2.69v5.46h2v-5.46l2.7,2.69,1.38-1.37L140,142.37v-4.85a6.75,6.75,0,0,0,4.33-2.49l4.19,2.42L150,143l1.89-.51-1-3.68,4.72,2.73,1-1.69-4.72-2.72ZM139,135.33a4.49,4.49,0,1,1,4.49-4.49A4.49,4.49,0,0,1,139,135.33Z" transform="translate(0.04 -0.19)"/></svg>