<svg id="Layer_1" data-name="Layer 1" xmlns="http://www.w3.org/2000/svg" viewBox="0 0 168.65 166.2"><defs><style>.cls-1{fill:#5199af;}.cls-2{fill:#65a5bf;}.cls-3{fill:#62a6c4;}.cls-4{fill:#6fadcd;}.cls-5{fill:#bababa;}.cls-6{fill:#c8c8c8;}</style></defs><title>50d</title><g id="Layer_2" data-name="Layer 2"><g id="Objects"><path class="cls-1" d="M13,39.81A32.09,32.09,0,0,1,72.93,18a32.08,32.08,0,0,1,6.4,63.84c-1,.1-2.09.16-3.13.16H22.06A22.06,22.06,0,0,1,13,39.81Z" transform="translate(0.04 -0.19)"/><path class="cls-2" d="M15,59.91a22.09,22.09,0,0,1,13-20.1A32.1,32.1,0,0,1,51.45.94l.19,0A32.17,32.17,0,0,1,72.93,18a32.08,32.08,0,0,1,6.4,63.84c-1,.1-2.09.16-3.13.16H37.1A22.06,22.06,0,0,1,15,60Z" transform="translate(0.04 -0.19)"/><path class="cls-3" d="M73.13,64.88a32.09,32.09,0,0,1,60-21.85,32.09,32.09,0,1,1,6.78,63.82,34.23,34.23,0,0,1-3.51.18H82.22a22.06,22.06,0,0,1-9.09-42.16Z" transform="translate(0.04 -0.19)"/><path class="cls-4" d="M75.2,85a22.07,22.07,0,0,1,13-20.1,31.52,31.52,0,0,1-1-7.73A32.09,32.09,0,0,1,111.81,26a32.13,32.13,0,0,1,21.28,17,32.09,32.09,0,1,1,6.78,63.82,34.23,34.23,0,0,1-3.51.18H97.26A22.06,22.06,0,0,1,75.2,85Z" transform="translate(0.04 -0.19)"/></g></g><path class="cls-5" d="M55.5,120.91a2.8,2.8,0,1,1,0-5.6h88.66a2.8,2.8,0,1,1,0,5.6Z" transform="translate(0.04 -0.19)"/><path class="cls-6" d="M145.16,120.91H56.5a1.8,1.8,0,1,1,0-3.6h88.66a1.8,1.8,0,1,1,0,3.6Z" transform="translate(0.04 -0.19)"/><path class="cls-5" d="M42.13,152.26a2.8,2.8,0,0,1,0-5.6H130.8a2.8,2.8,0,0,1,0,5.6Z" transform="translate(0.04 -0.19)"/><path class="cls-6" d="M130.8,152.26H42.13a1.8,1.8,0,0,1,0-3.6H130.8a1.8,1.8,0,0,1,0,3.6Z" transform="translate(0.04 -0.19)"/><path class="cls-5" d="M21.32,134.78a2.8,2.8,0,1,1,0-5.59H82.74a2.8,2.8,0,1,1,0,5.59Z" transform="translate(0.04 -0.19)"/><path class="cls-6" d="M83.74,134.78H22.32a1.8,1.8,0,1,1,0-3.59H83.74a1.8,1.8,0,1,1,0,3.59Z" transform="translate(0.04 -0.19)"/><path class="cls-5" d="M71.69,166.39a2.8,2.8,0,1,1,0-5.59H87.62a2.8,2.8,0,1,1,0,5.59Z" transform="translate(0.04 -0.19)"/><path class="cls-6" d="M88.62,166.39H72.69a1.8,1.8,0,1,1,0-3.59H88.62a1.8,1.8,0,1,1,0,3.59Z" transform="translate(0.04 -0.19)"/><path class="cls-5" d="M92.76,134.78a2.8,2.8,0,1,1,0-5.59H109a2.8,2.8,0,1,1,0,5.59Z" transform="translate(0.04 -0.19)"/><path class="cls-6" d="M110,134.78H93.76a1.8,1.8,0,1,1,0-3.59H110a1.8,1.8,0,1,1,0,3.59Z" transform="translate(0.04 -0.19)"/><path class="cls-5" d="M43.93,166.39a2.8,2.8,0,1,1,0-5.59H60.12a2.8,2.8,0,1,1,0,5.59Z" transform="translate(0.04 -0.19)"/><path class="cls-6" d="M61.12,166.39H44.93a1.8,1.8,0,1,1,0-3.59H61.12a1.8,1.8,0,1,1,0,3.59Z" transform="translate(0.04 -0.19)"/></svg>